HIERARCHY
ROOT hip
{
  OFFSET 0 0 0
  CHANNELS 6 Xposition Yposition Zposition Zrotation Yrotation Xrotation
  JOINT abdomen
  {
    OFFSET 0 20.6881 -0.73152
    CHANNELS 3 Zrotation Xrotation Yrotation
    JOINT chest
    {
      OFFSET 0 11.7043 -0.48768
      CHANNELS 3 Zrotation Xrotation Yrotation
      JOINT neck
      {
        OFFSET 0 22.1894 -2.19456
        CHANNELS 3 Zrotation Xrotation Yrotation
        JOINT head
        {
          OFFSET -0.24384 7.07133 1.2192
          CHANNELS 3 Zrotation Xrotation Yrotation
          JOINT leftEye
          {
            OFFSET 4.14528 8.04674 8.04672
            CHANNELS 3 Zrotation Xrotation Yrotation
            End Site
            {
              OFFSET 1 0 0
            }
          }
          JOINT rightEye
          {
            OFFSET -3.6576 8.04674 8.04672
            CHANNELS 3 Zrotation Xrotation Yrotation
            End Site
            {
              OFFSET 1 0 0
            }
          }
        }
      }
      JOINT rCollar
      {
        OFFSET -2.68224 19.2634 -4.8768
        CHANNELS 3 Zrotation Xrotation Yrotation
        JOINT rShldr
        {
          OFFSET -8.77824 -1.95073 1.46304
          CHANNELS 3 Zrotation Xrotation Yrotation
          JOINT rForeArm
          {
            OFFSET -28.1742 -1.7115 0.48768
            CHANNELS 3 Zrotation Xrotation Yrotation
            JOINT rHand
            {
              OFFSET -22.5879 0.773209 7.07136
              CHANNELS 3 Zrotation Xrotation Yrotation
              JOINT rThumb1
              {
                OFFSET -1.2192 -0.487915 3.41376
                CHANNELS 3 Zrotation Xrotation Yrotation
                JOINT rThumb2
                {
                  OFFSET -3.37035 -0.52449 3.41376
                  CHANNELS 3 Zrotation Xrotation Yrotation
                  End Site
                  {
                    OFFSET -1.78271 -1.18214 1.43049
                  }
                }
              }
              JOINT rIndex1
              {
                OFFSET -7.75947 0.938293 5.60832
                CHANNELS 3 Zrotation Xrotation Yrotation
                JOINT rIndex2
                {
                  OFFSET -2.54057 -0.884171 1.56538
                  CHANNELS 3 Zrotation Xrotation Yrotation
                  End Site
                  {
                    OFFSET -1.62519 -0.234802 1.16502
                  }
                }
              }
              JOINT rMid1
              {
                OFFSET -8.24714 1.18213 3.41376
                CHANNELS 3 Zrotation Xrotation Yrotation
                JOINT rMid2
                {
                  OFFSET -3.10165 -0.590103 1.0647
                  CHANNELS 3 Zrotation Xrotation Yrotation
                  End Site
                  {
                    OFFSET -2.48547 -0.328903 0.83742
                  }
                }
              }
              JOINT rRing1
              {
                OFFSET -8.82822 0.546677 1.51678
                CHANNELS 3 Zrotation Xrotation Yrotation
                JOINT rRing2
                {
                  OFFSET -2.60934 -0.819778 -0.0198488
                  CHANNELS 3 Zrotation Xrotation Yrotation
                  End Site
                  {
                    OFFSET -2.33842 -0.294052 0.168128
                  }
                }
              }
              JOINT rPinky1
              {
                OFFSET -8.27202 -0.0477905 -0.4584
                CHANNELS 3 Zrotation Xrotation Yrotation
                JOINT rPinky2
                {
                  OFFSET -1.82734 -0.647385 -0.700984
                  CHANNELS 3 Zrotation Xrotation Yrotation
                  End Site
                  {
                    OFFSET -1.69225 -0.51767 -0.607171
                  }
                }
              }
            }
          }
        }
      }
      JOINT lCollar
      {
        OFFSET 2.68224 19.2634 -4.8768
        CHANNELS 3 Zrotation Xrotation Yrotation
        JOINT lShldr
        {
          OFFSET 8.77824 -1.95073 1.46304
          CHANNELS 3 Zrotation Xrotation Yrotation
          JOINT lForeArm
          {
            OFFSET 28.1742 -1.7115 0.48768
            CHANNELS 3 Zrotation Xrotation Yrotation
            JOINT lHand
            {
              OFFSET 22.5879 0.773209 7.07136
              CHANNELS 3 Zrotation Xrotation Yrotation
              JOINT lThumb1
              {
                OFFSET 1.2192 -0.487915 3.41376
                CHANNELS 3 Zrotation Xrotation Yrotation
                JOINT lThumb2
                {
                  OFFSET 3.37035 -0.52449 3.41376
                  CHANNELS 3 Zrotation Xrotation Yrotation
                  End Site
                  {
                    OFFSET 1.78271 -1.18214 1.43049
                  }
                }
              }
              JOINT lIndex1
              {
                OFFSET 7.75947 0.938293 5.60832
                CHANNELS 3 Zrotation Xrotation Yrotation
                JOINT lIndex2
                {
                  OFFSET 2.54057 -0.884171 1.56538
                  CHANNELS 3 Zrotation Xrotation Yrotation
                  End Site
                  {
                    OFFSET 1.62519 -0.234802 1.16502
                  }
                }
              }
              JOINT lMid1
              {
                OFFSET 8.24714 1.18213 3.41376
                CHANNELS 3 Zrotation Xrotation Yrotation
                JOINT lMid2
                {
                  OFFSET 3.10165 -0.590103 1.0647
                  CHANNELS 3 Zrotation Xrotation Yrotation
                  End Site
                  {
                    OFFSET 2.48547 -0.328903 0.83742
                  }
                }
              }
              JOINT lRing1
              {
                OFFSET 8.82822 0.546677 1.51678
                CHANNELS 3 Zrotation Xrotation Yrotation
                JOINT lRing2
                {
                  OFFSET 2.60934 -0.819778 -0.0198488
                  CHANNELS 3 Zrotation Xrotation Yrotation
                  End Site
                  {
                    OFFSET 2.33842 -0.294052 0.168128
                  }
                }
              }
              JOINT lPinky1
              {
                OFFSET 8.27202 -0.0477905 -0.4584
                CHANNELS 3 Zrotation Xrotation Yrotation
                JOINT lPinky2
                {
                  OFFSET 1.82734 -0.647385 -0.700984
                  CHANNELS 3 Zrotation Xrotation Yrotation
                  End Site
                  {
                    OFFSET 1.69225 -0.51767 -0.607171
                  }
                }
              }
            }
          }
        }
      }
    }
  }
  JOINT rButtock
  {
    OFFSET -8.77824 4.35084 1.2192
    CHANNELS 3 Zrotation Xrotation Yrotation
    JOINT rThigh
    {
      OFFSET 0 -1.70687 -2.19456
      CHANNELS 3 Zrotation Xrotation Yrotation
      JOINT rShin
      {
        OFFSET 0 -36.8199 0.73152
        CHANNELS 3 Zrotation Xrotation Yrotation
        JOINT rFoot
        {
          OFFSET 0.73152 -45.1104 -5.12064
          CHANNELS 3 Zrotation Xrotation Yrotation
          End Site
          {
            OFFSET -1.1221 -3.69964 12.103
          }
        }
      }
    }
  }
  JOINT lButtock
  {
    OFFSET 8.77824 4.35084 1.2192
    CHANNELS 3 Zrotation Xrotation Yrotation
    JOINT lThigh
    {
      OFFSET 0 -1.70687 -2.19456
      CHANNELS 3 Zrotation Xrotation Yrotation
      JOINT lShin
      {
        OFFSET 0 -36.8199 0.73152
        CHANNELS 3 Zrotation Xrotation Yrotation
        JOINT lFoot
        {
          OFFSET -0.73152 -45.1104 -5.12064
          CHANNELS 3 Zrotation Xrotation Yrotation
          End Site
          {
            OFFSET 1.1221 -3.69964 12.103
          }
        }
      }
    }
  }
}
MOTION
Frames:	4
Frame Time:	0.00833333
57.6802 84.8928 23.4091 0.0 0.0 0.0 -0.180148 -0.000587416 -0.005138 -0.0496822 -0.000860796 -0.0086067 -7.79009e-15 7.95139e-16 3.41662e-17 -2.341e-14 3.18055e-15 1.04051e-16 -0.0 0.0 0.0 -0.0 0.0 0.0 -3.77837e-15 -1.16475e-18 1.49089e-16 -8.07648e-14 3.10601e-16 7.95139e-16 -1.40884e-12 4.24008e-13 9.54166e-15 -1.61379e-11 -4.15957e-13 3.49861e-14 -3.80665e-11 1.02095e-14 1.20861e-13 -6.575e-11 1.27222e-14 1.96399e-13 -3.80613e-11 1.03368e-14 1.11319e-13 7.73091 5.47488 0.417314 -3.80659e-11 1.05356e-14 1.17681e-13 2.90554 0.965183 0.102902 -3.80591e-11 1.0635e-14 1.16885e-13 10.2786 0.731801 0.0259123 -3.80714e-11 1.31198e-14 1.24042e-13 2.22167 -0.733487 -0.20892 -3.97449e-15 -9.70628e-19 -1.49089e-16 -8.34783e-14 4.22417e-16 -7.95139e-16 -1.41241e-12 -4.19038e-13 1.90833e-14 -1.61372e-11 4.26244e-13 4.13472e-14 -3.80676e-11 7.24202e-15 1.17681e-13 -6.57246e-11 1.27222e-14 2.11507e-13 -3.8072e-11 7.15625e-15 1.20861e-13 -7.73091 5.47488 -0.417314 -3.80673e-11 7.35503e-15 1.20861e-13 -2.90554 0.965183 -0.102902 -3.80726e-11 7.55382e-15 1.16885e-13 -10.2786 0.731801 -0.0259123 -3.80665e-11 9.54166e-15 1.04958e-13 -2.22167 -0.733487 0.20892 -2.03217e-16 0.0 -3.88251e-19 0.373563 -2.84391 -0.0347137 -0.00664979 -0.401535 -0.0584291 -0.509713 3.24465 0.124535 2.03217e-16 0.0 3.88251e-19 -0.647777 -3.54407 0.0518675 0.00461061 0.866742 0.0396099 0.511845 2.67657 -0.113179
57.891 82.856 16.4499 173.753 65.0839 -170.784 -2.03224 -5.09379 0.193531 0.7043 0.546799 0.184653 -0.841681 5.91164 0.364163 1.54048 -10.3439 1.16368 -0.0 0.0 0.0 -0.0 0.0 0.0 -3.98506e-14 -8.80444e-14 -7.23902e-14 23.7832 -3.59405 -0.559469 -2.19665 -0.780385 3.63083 0.240171 10.8893 1.43219 6.02607e-10 1.19838e-10 -1.10909e-10 1.03506e-09 2.08203e-10 -2.10945e-10 6.02612e-10 1.19836e-10 -1.10917e-10 7.73091 5.47488 0.417314 6.02608e-10 1.19836e-10 -1.10911e-10 2.90554 0.965183 0.102902 6.02616e-10 1.19836e-10 -1.10911e-10 10.2786 0.731801 0.0259123 6.02601e-10 1.19839e-10 -1.10904e-10 2.22167 -0.733487 -0.20892 -4.0063e-14 -8.80444e-14 -7.27191e-14 -23.4882 -4.7329 -0.170586 1.7388 -0.57742 -2.90297 -0.468849 15.3209 -1.88661 -5.49405e-10 2.34218e-10 3.67818e-10 -9.28184e-10 4.12835e-10 6.55108e-10 -5.4941e-10 2.34218e-10 3.67822e-10 -7.73091 5.47488 -0.417314 -5.49405e-10 2.34218e-10 3.6782e-10 -2.90554 0.965183 -0.102902 -5.4941e-10 2.34218e-10 3.67815e-10 -10.2786 0.731801 -0.0259123 -5.49404e-10 2.3422e-10 3.67804e-10 -2.22167 -0.733487 0.20892 -2.03217e-16 0.0 -3.88251e-19 0.179829 -11.4332 0.825683 0.00900215 8.12105 0.0857812 -0.930832 0.423837 -4.36888 2.03217e-16 0.0 3.88251e-19 -1.5816 -8.2618 -2.53226 -0.0299896 7.29099 -0.119955 1.00153 -3.2569 3.58271
58.1302 82.8585 16.4633 173.867 65.0915 -170.651 -3.9554 -10.4749 0.412423 1.49269 1.12059 0.390463 -1.80845 12.1582 0.759238 3.64932 -21.2505 2.51884 -0.0 0.0 0.0 -0.0 0.0 0.0 -7.67874e-14 -1.81413e-13 -1.44529e-13 48.8545 -7.38056 -1.15448 -4.41093 -1.59464 7.47032 -0.141392 22.3695 3.12788 1.18824e-09 2.26047e-10 -2.13814e-10 2.04134e-09 3.92364e-10 -4.06316e-10 1.18824e-09 2.26043e-10 -2.13819e-10 7.73091 5.47488 0.417314 1.18824e-09 2.26043e-10 -2.13814e-10 2.90554 0.965183 0.102902 1.18825e-09 2.26043e-10 -2.13814e-10 10.2786 0.731801 0.0259123 1.18823e-09 2.26046e-10 -2.13806e-10 2.22167 -0.733487 -0.20892 -7.70179e-14 -1.81413e-13 -1.44892e-13 -48.3467 -9.79477 -0.349543 3.50707 -1.1801 -5.96218 0.305449 31.5231 -4.39853 -1.0387e-09 4.2622e-10 6.82582e-10 -1.75454e-09 7.49725e-10 1.21807e-09 -1.03871e-09 4.2622e-10 6.82587e-10 -7.73091 5.47488 -0.417314 -1.0387e-09 4.26219e-10 6.82583e-10 -2.90554 0.965183 -0.102902 -1.03871e-09 4.26219e-10 6.82576e-10 -10.2786 0.731801 -0.0259123 -1.0387e-09 4.26221e-10 6.82566e-10 -2.22167 -0.733487 0.20892 -2.03217e-16 0.0 -3.88251e-19 0.260573 -20.5153 1.80947 -0.0229283 17.1321 0.247322 -1.85183 -2.51219 -9.11461 2.03217e-16 0.0 3.88251e-19 -3.05284 -13.1976 -5.36246 -0.0267164 14.0546 -0.295183 2.35836 -9.46165 7.58196
58.3443 82.8573 16.4967 173.838 65.099 -170.547 -5.62717 -15.2795 0.610143 2.20118 1.64205 0.571381 -2.76004 17.732 1.14089 6.05901 -30.9759 4.00642 -0.0 0.0 0.0 -0.0 0.0 0.0 -1.11995e-13 -2.64131e-13 -2.17469e-13 71.1357 -10.778 -1.7052 -6.29501 -2.30358 10.9004 -1.16957 32.5783 5.00886 1.88395e-09 3.59492e-10 -3.32969e-10 3.23668e-09 6.24583e-10 -6.33229e-10 1.88396e-09 3.59486e-10 -3.32973e-10 7.73091 5.47488 0.417314 1.88396e-09 3.59486e-10 -3.32968e-10 2.90554 0.965183 0.102902 1.88396e-09 3.59486e-10 -3.32968e-10 10.2786 0.731801 0.0259123 1.88395e-09 3.59489e-10 -3.32959e-10 2.22167 -0.733487 -0.20892 -1.1224e-13 -2.64131e-13 -2.17859e-13 -70.5515 -14.1982 -0.526084 5.04155 -1.71448 -8.71241 2.72068 45.7181 -7.83076 -1.57208e-09 7.02639e-10 1.10322e-09 -2.6531e-09 1.23848e-09 1.9649e-09 -1.57209e-09 7.02639e-10 1.10322e-09 -7.73091 5.47488 -0.417314 -1.57208e-09 7.02638e-10 1.10322e-09 -2.90554 0.965183 -0.102902 -1.57208e-09 7.02638e-10 1.10321e-09 -10.2786 0.731801 -0.0259123 -1.57208e-09 7.0264e-10 1.1032e-09 -2.22167 -0.733487 0.20892 -2.03217e-16 0.0 -3.88251e-19 0.659579 -28.5855 2.84416 -0.0987605 25.1657 0.410591 -3.09184 -5.07273 -13.4085 2.03217e-16 0.0 3.88251e-19 -4.7773 -17.5595 -7.99629 0.0138953 20.1389 -0.464571 4.32461 -14.8605 11.341
